<svg width="95" height="135" viewBox="0 0 95 135" fill="none" xmlns="http://www.w3.org/2000/svg">
<path d="M47.5 135C47.5 135 -13.669 71.7779 2.82202 30.583C19.1459 -10.1943 75.8541 -10.1943 92.178 30.583C108.669 71.7779 47.5 135 47.5 135Z" fill="white"/>
<path fill-rule="evenodd" clip-rule="evenodd" d="M47.5 135C47.5 135 48.2455 134.229 49.5497 132.803C60.0592 121.309 106.848 67.2301 92.178 30.583C75.8541 -10.1943 19.1459 -10.1943 2.82202 30.583C-11.8484 67.2301 34.9408 121.309 45.4503 132.803C46.7545 134.229 47.5 135 47.5 135ZM47.5 130.599C47.6201 130.467 47.7447 130.33 47.8737 130.188C49.4899 128.405 51.7872 125.806 54.4955 122.557C59.9174 116.052 66.9621 106.971 73.4865 96.6379C80.0217 86.2875 85.9664 74.7878 89.274 63.4379C92.5864 52.0717 93.1736 41.1423 89.3929 31.6979C74.0752 -6.56598 20.9249 -6.56599 5.60715 31.6979C1.82641 41.1423 2.41357 52.0716 5.726 63.4379C9.03365 74.7878 14.9783 86.2875 21.5135 96.6379C28.0379 106.971 35.0826 116.052 40.5044 122.557C43.2128 125.806 45.5101 128.405 47.1263 130.188C47.2553 130.33 47.3799 130.467 47.5 130.599Z" fill="#8142D6"/>
<path d="M54.2 45.624H56.376V46.84C56.376 51.896 53.144 55.992 48.312 57.624L47.032 55.544C51.32 54.2 54.2 50.744 54.2 46.84V45.624ZM54.68 45.624H56.856V46.84C56.856 50.424 59.672 53.72 63.896 55L62.616 57.08C57.816 55.544 54.68 51.576 54.68 46.84V45.624ZM47.8 44.12H63.224V46.264H47.8V44.12ZM54.2 40.44H56.856V45.176H54.2V40.44ZM66.776 40.568H69.432V58.2H66.776V40.568ZM68.696 48.28H73.72V50.488H68.696V48.28ZM50.648 59.736H69.432V69.528H66.776V61.912H50.648V59.736Z" fill="#8142D6"/>
<path d="M24.0585 54.072H43.9305V56.248H24.0585V54.072ZM20.7625 63.64H46.9705V65.88H20.7625V63.64ZM32.4745 55H35.1305V64.536H32.4745V55ZM24.0585 42.872H43.6425V45.048H26.7145V55.032H24.0585V42.872Z" fill="#8142D6"/>
</svg>
