<svg width="95" height="135" viewBox="0 0 95 135" fill="none" xmlns="http://www.w3.org/2000/svg">
<path d="M47.5 135C47.5 135 -13.669 71.7779 2.82202 30.583C19.1459 -10.1943 75.8541 -10.1943 92.178 30.583C108.669 71.7779 47.5 135 47.5 135Z" fill="#8142D6"/>
<path d="M32.4745 54.968H35.1305V59.352H32.4745V54.968ZM20.7625 53.4H46.8745V55.448H20.7625V53.4ZM32.5065 40.376H35.1305V43.896H32.5065V40.376ZM32.3785 44.152H34.7145V44.6C34.7145 49.144 29.3065 51.576 22.9065 52.12L22.1385 50.072C27.8345 49.72 32.3785 47.704 32.3785 44.6V44.152ZM32.9225 44.152H35.2585V44.6C35.2585 47.704 39.8025 49.72 45.4665 50.072L44.6985 52.12C38.2985 51.576 32.9225 49.144 32.9225 44.6V44.152ZM23.4185 43.096H44.2185V45.112H23.4185V43.096ZM23.8985 58.072H43.5465V64.44H26.5865V67.928H23.9625V62.552H40.9225V60.088H23.8985V58.072ZM23.9625 67.16H44.4105V69.176H23.9625V67.16Z" fill="white"/>
<path d="M48.184 41.752H50.808V45.912H58.968V41.752H61.56V54.392H48.184V41.752ZM50.808 47.992V52.248H58.968V47.992H50.808ZM66.776 40.568H69.432V55.48H66.776V40.568ZM68.28 46.776H73.688V48.984H68.28V46.776ZM51.064 56.888H69.432V63.896H53.752V68.248H51.128V61.912H66.84V59H51.064V56.888ZM51.128 67.064H70.488V69.176H51.128V67.064Z" fill="white"/>
</svg>
